<svg xmlns="http://www.w3.org/2000/svg" xmlns:xlink="http://www.w3.org/1999/xlink" width="500" zoomAndPan="magnify" viewBox="0 0 375 374.999991" height="500" preserveAspectRatio="xMidYMid meet" version="1.0"><defs><g/><clipPath id="4d07b10462"><path d="M 226 116 L 264 116 L 264 216 L 226 216 Z M 226 116 " clip-rule="nonzero"/></clipPath><clipPath id="d3b034aa73"><path d="M 247.570312 115.949219 L 274.59375 122.257812 L 251.578125 220.859375 L 224.554688 214.546875 Z M 247.570312 115.949219 " clip-rule="nonzero"/></clipPath><clipPath id="01028f0602"><path d="M 247.570312 115.949219 L 274.59375 122.257812 L 251.578125 220.859375 L 224.554688 214.546875 Z M 247.570312 115.949219 " clip-rule="nonzero"/></clipPath><clipPath id="32ee8485d9"><path d="M 247.570312 115.949219 L 274.59375 122.257812 L 251.578125 220.859375 L 224.554688 214.546875 Z M 247.570312 115.949219 " clip-rule="nonzero"/></clipPath><clipPath id="64c1de7b48"><path d="M 111 116 L 148 116 L 148 216 L 111 216 Z M 111 116 " clip-rule="nonzero"/></clipPath><clipPath id="fc6618db4f"><path d="M 100.257812 122.125 L 127.320312 115.996094 L 149.675781 214.746094 L 122.609375 220.875 Z M 100.257812 122.125 " clip-rule="nonzero"/></clipPath><clipPath id="53052e0d6f"><path d="M 127.457031 115.964844 L 100.394531 122.09375 L 122.746094 220.84375 L 149.8125 214.714844 Z M 127.457031 115.964844 " clip-rule="nonzero"/></clipPath><clipPath id="5671c9ec64"><path d="M 127.457031 115.964844 L 100.394531 122.09375 L 122.746094 220.84375 L 149.8125 214.714844 Z M 127.457031 115.964844 " clip-rule="nonzero"/></clipPath><clipPath id="7c736440eb"><path d="M 174 195 L 201 195 L 201 198.285156 L 174 198.285156 Z M 174 195 " clip-rule="nonzero"/></clipPath><clipPath id="1f8326afd5"><path d="M 183 134.535156 L 190 134.535156 L 190 141 L 183 141 Z M 183 134.535156 " clip-rule="nonzero"/></clipPath><clipPath id="30d016fc87"><path d="M 212 143 L 221.890625 143 L 221.890625 176 L 212 176 Z M 212 143 " clip-rule="nonzero"/></clipPath><clipPath id="11d41d77e6"><path d="M 152.890625 175 L 171 175 L 171 181 L 152.890625 181 Z M 152.890625 175 " clip-rule="nonzero"/></clipPath><clipPath id="6d92d85b8c"><path d="M 204 175 L 221.890625 175 L 221.890625 181 L 204 181 Z M 204 175 " clip-rule="nonzero"/></clipPath><clipPath id="36b3d63eda"><path d="M 213 175 L 221.890625 175 L 221.890625 181 L 213 181 Z M 213 175 " clip-rule="nonzero"/></clipPath><clipPath id="a73aa4c208"><path d="M 186 195 L 201 195 L 201 198.285156 L 186 198.285156 Z M 186 195 " clip-rule="nonzero"/></clipPath></defs><path fill="#000000" d="M 187.527344 216.777344 L 187.121094 216.65625 C 174.546875 212.726562 164.410156 205.730469 156.933594 195.878906 C 150.988281 188.015625 146.734375 178.324219 144.316406 167.097656 C 140.203125 148.050781 142.722656 131.386719 142.84375 130.679688 L 142.964844 129.851562 L 187.503906 116.007812 L 232.046875 129.851562 L 232.167969 130.679688 C 232.265625 131.386719 234.785156 148.050781 230.695312 167.097656 C 228.277344 178.324219 224.023438 188.015625 218.078125 195.878906 C 210.621094 205.730469 200.464844 212.726562 187.886719 216.65625 Z M 145.363281 131.886719 C 144.898438 135.476562 143.410156 150.347656 146.9375 166.613281 C 149.273438 177.457031 153.363281 186.765625 159.089844 194.304688 C 166.121094 203.597656 175.695312 210.226562 187.527344 213.996094 C 199.375 210.207031 208.949219 203.574219 215.984375 194.265625 C 221.707031 186.707031 225.777344 177.375 228.117188 166.53125 C 231.621094 150.289062 230.128906 135.457031 229.667969 131.886719 L 187.503906 118.789062 Z M 145.363281 131.886719 " fill-opacity="1" fill-rule="nonzero"/><g clip-path="url(#4d07b10462)"><g clip-path="url(#d3b034aa73)"><g clip-path="url(#01028f0602)"><g clip-path="url(#32ee8485d9)"><path fill="#000000" d="M 250.550781 188.242188 C 250.882812 187.867188 251.441406 187.332031 251.933594 186.878906 C 252.410156 186.425781 252.824219 186.019531 253.148438 185.738281 C 253.460938 185.4375 253.675781 185.261719 253.726562 185.257812 C 253.792969 185.253906 253.703125 185.429688 253.398438 185.765625 C 253.113281 186.085938 252.597656 186.582031 252.097656 187.066406 C 251.585938 187.542969 251.070312 188.023438 250.714844 188.378906 C 250.503906 188.589844 250.351562 188.765625 250.242188 188.882812 C 250.140625 189.121094 250.039062 189.339844 249.941406 189.558594 C 249.691406 190.070312 249.46875 190.550781 249.242188 190.96875 C 249.449219 190.757812 249.691406 190.554688 249.933594 190.351562 C 250.597656 189.84375 251.386719 189.363281 252.351562 188.746094 C 253.328125 188.128906 254.484375 187.378906 255.578125 186.417969 C 256.671875 185.457031 257.683594 184.285156 258.480469 183.222656 C 259.273438 182.160156 259.824219 181.183594 260.316406 180.246094 C 260.8125 179.292969 261.230469 178.386719 261.59375 177.386719 C 261.941406 176.378906 262.207031 175.308594 262.304688 174.679688 C 262.359375 174.320312 262.359375 174.109375 262.320312 174.003906 C 262.277344 174.109375 262.230469 174.242188 262.179688 174.394531 C 261.988281 174.867188 261.703125 175.546875 261.433594 176.066406 C 261.183594 176.59375 260.964844 176.980469 260.800781 177.199219 C 260.65625 177.410156 260.554688 177.433594 260.550781 177.382812 C 260.542969 177.332031 260.640625 177.195312 260.78125 176.949219 C 260.917969 176.707031 261.082031 176.339844 261.304688 175.875 C 261.523438 175.421875 261.796875 174.871094 261.964844 174.425781 C 262.042969 174.230469 262.101562 174.050781 262.148438 173.898438 C 262.042969 173.957031 261.917969 174.136719 261.683594 174.390625 C 261.425781 174.671875 261.050781 175.035156 260.3125 175.707031 C 259.582031 176.363281 258.488281 177.324219 257.398438 178.414062 C 256.328125 179.492188 255.261719 180.6875 254.367188 181.679688 C 250.710938 185.703125 252.5625 182.390625 251.023438 186.925781 C 250.847656 187.386719 250.671875 187.867188 250.480469 188.339844 C 250.503906 188.3125 250.527344 188.285156 250.550781 188.242188 Z M 253.734375 192.246094 C 253.621094 192.394531 253.5 192.5625 253.363281 192.742188 C 252.972656 193.234375 252.453125 193.808594 252.074219 194.269531 C 251.695312 194.71875 251.472656 195.054688 251.402344 195.21875 C 251.320312 195.359375 251.390625 195.328125 251.648438 195.0625 C 251.90625 194.78125 252.332031 194.265625 252.753906 193.765625 C 253.195312 193.253906 253.628906 192.769531 253.898438 192.445312 L 253.925781 192.402344 C 253.796875 192.597656 253.640625 192.855469 253.4375 193.179688 C 252.90625 194.011719 252.046875 195.269531 251.15625 196.40625 C 250.25 197.527344 249.3125 198.519531 248.285156 199.402344 C 247.257812 200.296875 246.144531 201.070312 245.035156 201.753906 C 243.925781 202.449219 242.832031 203.054688 241.449219 204.027344 C 240.0625 205 238.402344 206.332031 236.769531 207.75 C 235.117188 209.179688 233.480469 210.679688 232.117188 211.898438 C 230.757812 213.105469 229.675781 214.019531 228.960938 214.535156 C 228.246094 215.046875 227.894531 215.175781 227.570312 215.117188 C 227.25 215.058594 226.953125 214.808594 226.757812 214.601562 C 226.550781 214.394531 226.46875 214.195312 226.667969 214.03125 C 226.871094 213.851562 227.375 213.695312 228.679688 212.847656 C 229.976562 211.984375 232.089844 210.433594 233.59375 209.230469 C 235.078125 208.035156 235.964844 207.207031 236.765625 206.257812 C 237.542969 205.320312 238.386719 204.191406 238.820312 203.171875 C 238.996094 202.757812 239.121094 202.367188 239.199219 201.964844 C 239.234375 201.875 239.289062 201.773438 239.335938 201.65625 C 239.40625 201.414062 239.492188 201.109375 239.550781 200.796875 C 239.621094 200.488281 239.683594 200.164062 239.746094 199.675781 C 239.828125 199.191406 239.90625 198.578125 239.976562 197.996094 C 240.066406 197.417969 240.121094 196.910156 240.121094 196.214844 C 240.121094 195.53125 240.050781 194.65625 239.980469 194.140625 C 239.925781 193.609375 239.890625 193.421875 239.859375 193.414062 C 239.828125 193.40625 239.820312 193.582031 239.820312 193.921875 C 239.832031 194.28125 239.847656 194.773438 239.855469 195.421875 C 239.851562 196.054688 239.835938 196.8125 239.722656 197.710938 C 239.625 198.546875 239.449219 199.507812 239.320312 200.273438 C 239.304688 200.191406 239.308594 200.109375 239.308594 200.042969 C 239.269531 198.835938 238.929688 197.394531 238.542969 195.941406 C 238.148438 194.472656 237.601562 192.96875 237.117188 191.25 C 236.613281 189.542969 236.160156 187.621094 235.988281 185.328125 C 235.835938 183.023438 235.960938 180.347656 236.066406 178.523438 C 236.152344 176.710938 236.207031 175.785156 236.21875 175.253906 L 236.222656 175.171875 C 236.277344 175.558594 236.359375 176.03125 236.464844 176.476562 C 236.613281 177.210938 236.785156 177.863281 236.878906 178.488281 C 236.996094 179.097656 237.046875 179.691406 237.070312 180.007812 C 237.09375 180.320312 237.105469 180.339844 237.164062 180.222656 C 237.210938 180.105469 237.269531 179.84375 237.214844 179.179688 C 237.15625 178.535156 236.964844 177.5 236.824219 176.660156 C 236.75 176.21875 236.679688 175.832031 236.609375 175.507812 C 236.792969 175.957031 237.066406 176.585938 237.535156 177.390625 C 238.238281 178.660156 239.375 180.335938 240.210938 181.921875 C 241.03125 183.507812 241.566406 184.996094 241.871094 186.507812 C 242.179688 188.023438 242.25 189.578125 242.144531 191.207031 C 242.050781 192.839844 241.761719 194.570312 241.429688 195.984375 C 241.101562 197.398438 240.726562 198.511719 240.398438 199.4375 C 240.082031 200.371094 239.820312 201.152344 239.683594 201.738281 C 239.546875 202.320312 239.53125 202.738281 239.6875 202.902344 C 239.824219 203.066406 240.136719 202.976562 240.601562 202.484375 C 241.058594 201.976562 241.671875 201.082031 242.625 199.539062 C 243.246094 198.53125 243.992188 197.265625 244.691406 196.066406 C 244.75 195.949219 244.847656 195.808594 244.992188 195.601562 C 245.257812 195.226562 245.644531 194.667969 246.140625 193.988281 C 246.632812 193.324219 247.214844 192.554688 247.882812 191.558594 C 248.546875 190.5625 249.285156 189.339844 249.757812 188.414062 C 250.042969 187.882812 250.222656 187.453125 250.351562 187.109375 C 250.480469 186.832031 250.59375 186.488281 250.769531 185.863281 C 250.984375 185.085938 251.285156 183.859375 251.542969 182.492188 C 251.726562 181.417969 251.824219 180.535156 252.148438 179.476562 C 252.320312 178.882812 252.628906 178.046875 252.960938 176.972656 C 253.308594 175.886719 253.6875 174.550781 253.917969 173.695312 C 254.21875 172.617188 254.363281 171.644531 254.5625 170.523438 C 254.851562 168.726562 255.023438 166.886719 255.351562 165.132812 C 255.417969 164.710938 255.542969 164.1875 255.691406 163.542969 C 255.859375 162.902344 256.050781 162.152344 256.292969 161.039062 C 256.605469 159.558594 257.035156 157.792969 257.203125 156.308594 C 257.351562 155.0625 257.371094 153.464844 257.335938 152.160156 C 257.304688 150.855469 257.21875 149.847656 257.125 148.933594 C 257.066406 148.222656 256.988281 147.523438 256.929688 146.8125 C 256.863281 145.988281 256.78125 145.171875 256.734375 144.335938 C 256.671875 143.429688 256.636719 142.417969 256.53125 141.5 C 256.484375 141.066406 256.394531 140.429688 256.210938 139.480469 C 256.042969 138.550781 255.789062 137.308594 255.457031 136.097656 C 255.132812 134.882812 254.726562 133.722656 254.160156 132.4375 C 253.59375 131.136719 252.875 129.738281 252.050781 128.378906 C 251.214844 127 250.304688 125.667969 249.601562 124.46875 C 248.929688 123.289062 248.464844 122.242188 248.179688 121.269531 C 247.894531 120.292969 247.765625 119.386719 247.707031 118.613281 C 247.644531 117.835938 247.648438 117.203125 247.585938 116.785156 C 247.554688 116.566406 247.511719 116.410156 247.492188 116.292969 C 247.664062 116.527344 247.875 116.789062 248.082031 117.078125 C 248.378906 117.457031 248.648438 117.875 248.875 118.21875 C 249.085938 118.5625 249.242188 118.855469 249.363281 119.015625 C 249.5 119.191406 249.601562 119.234375 249.601562 119.167969 C 249.601562 119.105469 249.496094 118.933594 249.277344 118.558594 C 249.042969 118.179688 248.714844 117.597656 248.414062 117.15625 C 248.121094 116.699219 247.859375 116.363281 247.652344 116.085938 C 247.820312 116.125 248.105469 116.273438 248.570312 116.5625 C 249.230469 116.976562 250.257812 117.667969 251.171875 118.578125 C 252.066406 119.5 252.847656 120.625 253.386719 121.6875 C 253.925781 122.753906 254.234375 123.78125 254.453125 125.246094 C 254.675781 126.707031 254.8125 128.601562 254.964844 130.226562 C 255.011719 130.851562 255.082031 131.4375 255.136719 131.96875 C 254.960938 131.277344 254.730469 130.464844 254.527344 129.832031 C 254.242188 128.988281 254.011719 128.527344 253.824219 128.144531 C 253.628906 127.757812 253.46875 127.464844 253.40625 127.398438 C 253.359375 127.324219 253.40625 127.464844 253.546875 127.820312 C 253.707031 128.183594 253.941406 128.753906 254.164062 129.457031 C 254.402344 130.160156 254.59375 130.984375 254.792969 131.710938 C 254.992188 132.390625 255.1875 132.984375 255.3125 133.355469 C 255.363281 133.675781 255.40625 133.976562 255.453125 134.261719 C 255.632812 135.359375 255.816406 136.210938 255.957031 136.925781 C 256.09375 137.652344 256.179688 138.242188 256.261719 138.792969 C 256.339844 139.347656 256.425781 139.871094 256.507812 140.28125 C 256.59375 140.671875 256.671875 141.03125 256.734375 141.449219 C 256.859375 142.226562 256.996094 143.214844 257.078125 143.976562 C 257.238281 145.28125 257.175781 145.6875 257.210938 146.847656 C 257.21875 147.21875 257.25 147.714844 257.289062 148.160156 C 257.371094 148.988281 257.5 149.734375 257.574219 150.660156 C 257.648438 151.582031 257.714844 152.960938 257.683594 154.332031 C 257.652344 155.703125 257.558594 157.058594 257.367188 158.292969 C 257.074219 160.234375 256.378906 162.050781 255.933594 163.957031 C 255.773438 164.710938 255.632812 165.457031 255.503906 166.207031 C 255.382812 166.9375 255.230469 167.730469 255.101562 168.476562 C 254.898438 169.628906 254.730469 170.902344 254.546875 171.898438 C 254.382812 172.878906 254.214844 173.734375 253.949219 174.804688 C 253.664062 175.875 253.34375 176.980469 253.117188 177.738281 C 252.894531 178.496094 252.601562 179.257812 252.378906 180.015625 C 252.183594 180.699219 252.027344 181.519531 251.894531 182.152344 C 251.621094 183.53125 251.472656 184.714844 251.019531 186.101562 C 250.707031 187.03125 250.257812 188.125 249.835938 189.046875 C 249.410156 189.96875 249.035156 190.757812 248.753906 191.261719 C 248.21875 192.253906 247.441406 193.171875 246.800781 194.125 C 246.332031 194.8125 245.910156 195.457031 245.554688 196.023438 C 244.765625 197.332031 244.949219 197.503906 243.875 198.808594 C 243.515625 199.242188 243.292969 199.578125 242.871094 200.210938 C 242.449219 200.84375 242 201.597656 241.671875 202.101562 C 241.359375 202.628906 241.160156 202.921875 241.074219 203.082031 C 240.984375 203.257812 241.007812 203.308594 241.03125 203.347656 C 241.050781 203.386719 241.066406 203.386719 241.121094 203.367188 C 241.171875 203.347656 241.269531 203.273438 241.359375 203.179688 C 241.378906 203.152344 241.390625 203.105469 241.414062 203.082031 C 241.429688 203.082031 241.433594 203.066406 241.433594 203.066406 C 241.570312 203.019531 241.898438 202.789062 242.382812 202.511719 C 242.863281 202.234375 243.515625 201.917969 244.015625 201.644531 C 244.511719 201.375 244.855469 201.144531 245.164062 200.925781 C 245.472656 200.707031 245.753906 200.460938 245.609375 200.527344 C 245.472656 200.574219 244.921875 200.933594 244.179688 201.359375 C 243.4375 201.769531 242.503906 202.265625 242.046875 202.5 C 241.832031 202.59375 241.722656 202.648438 241.65625 202.667969 C 241.785156 202.453125 242.027344 202.167969 242.335938 201.675781 C 242.644531 201.179688 243.097656 200.472656 243.613281 199.785156 C 244.128906 199.09375 244.789062 198.261719 245.121094 197.933594 C 245.472656 197.609375 245.484375 197.5625 245.640625 197.4375 C 246.023438 197.171875 246.570312 196.761719 247.296875 196.269531 C 248.238281 195.613281 249.496094 194.835938 250.503906 194.246094 C 251.519531 193.671875 252.296875 193.304688 252.871094 192.917969 C 253.230469 192.675781 253.511719 192.449219 253.734375 192.246094 Z M 259.371094 129.328125 C 259.433594 129.617188 259.554688 130.117188 259.601562 130.613281 C 259.648438 131.09375 259.621094 131.558594 259.59375 131.957031 C 259.570312 132.339844 259.546875 132.640625 259.53125 132.847656 C 259.527344 133.074219 259.550781 133.175781 259.59375 133.203125 C 259.617188 133.226562 259.652344 133.152344 259.6875 132.867188 C 259.71875 132.585938 259.75 132.105469 259.753906 131.605469 C 259.761719 131.101562 259.738281 130.578125 259.703125 130.179688 C 259.667969 129.914062 259.625 129.691406 259.59375 129.542969 C 259.695312 129.726562 259.855469 130.007812 260.039062 130.457031 C 260.289062 131.046875 260.597656 131.929688 260.777344 133.011719 C 260.960938 134.089844 261.023438 135.402344 260.90625 136.523438 C 260.789062 137.648438 260.503906 138.601562 260.164062 139.496094 C 259.847656 140.378906 259.496094 141.1875 259.160156 141.871094 C 258.828125 142.539062 258.507812 143.082031 258.207031 143.609375 C 257.90625 144.140625 257.640625 144.660156 257.484375 145.046875 C 257.464844 145.074219 257.457031 145.105469 257.445312 145.152344 C 257.445312 145.085938 257.441406 145.035156 257.4375 144.984375 C 257.417969 144.917969 257.421875 144.835938 257.40625 144.769531 C 257.429688 144.660156 257.460938 144.539062 257.476562 144.394531 C 257.554688 144.058594 257.648438 143.65625 257.808594 143.113281 C 257.953125 142.5625 258.183594 141.855469 258.3125 141.367188 C 258.457031 140.878906 258.535156 140.625 258.542969 140.511719 C 258.539062 140.398438 258.480469 140.449219 258.386719 140.636719 C 258.289062 140.839844 258.1875 141.222656 257.984375 141.871094 C 257.800781 142.527344 257.554688 143.441406 257.425781 144.058594 C 257.398438 144.183594 257.390625 144.292969 257.367188 144.386719 C 257.058594 141.445312 257.261719 138.429688 257.8125 135.511719 C 258.03125 134.378906 258.382812 133.277344 258.664062 132.417969 C 258.945312 131.5625 259.152344 130.960938 259.25 130.464844 C 259.351562 129.96875 259.359375 129.582031 259.355469 129.386719 C 259.363281 129.355469 259.355469 129.324219 259.359375 129.308594 Z M 246.71875 131.105469 C 247.109375 131.359375 247.777344 131.808594 248.359375 132.265625 C 248.949219 132.710938 249.453125 133.171875 249.726562 133.445312 C 250.003906 133.703125 250.042969 133.8125 249.957031 133.773438 C 249.867188 133.738281 249.617188 133.566406 249.28125 133.277344 C 248.945312 133.003906 248.503906 132.625 248.085938 132.28125 C 247.648438 131.9375 247.234375 131.648438 246.941406 131.464844 C 246.734375 131.320312 246.589844 131.238281 246.476562 131.179688 C 246.457031 131.253906 246.535156 131.417969 246.683594 131.664062 C 246.851562 131.914062 247.09375 132.246094 247.671875 133.078125 C 248.234375 133.90625 249.121094 135.214844 250.214844 136.445312 C 251.316406 137.65625 252.632812 138.773438 253.558594 139.6875 C 254.476562 140.582031 255.007812 141.273438 255.386719 141.914062 C 255.773438 142.539062 256.011719 143.097656 256.238281 143.847656 C 256.371094 144.25 256.484375 144.714844 256.597656 145.195312 C 256.582031 144.933594 256.566406 144.441406 256.523438 143.929688 C 256.507812 143.859375 256.496094 143.777344 256.464844 143.707031 C 256.367188 143.359375 256.222656 142.886719 255.96875 142.324219 C 255.710938 141.761719 255.339844 141.09375 254.996094 140.558594 C 254.65625 140.023438 254.351562 139.597656 254.171875 139.328125 C 254.011719 139.0625 253.984375 138.960938 254.039062 139.007812 C 254.113281 139.039062 254.273438 139.238281 254.53125 139.589844 C 254.785156 139.941406 255.121094 140.441406 255.484375 141.09375 C 255.824219 141.757812 256.203125 142.558594 256.417969 143.078125 C 256.421875 143.128906 256.445312 143.167969 256.46875 143.203125 C 256.449219 143.085938 256.429688 142.953125 256.410156 142.835938 C 256.359375 142.578125 256.347656 142.347656 256.242188 142.242188 C 256.144531 142.125 255.96875 141.773438 255.769531 141.242188 C 255.589844 140.699219 255.367188 139.933594 255.027344 139.042969 C 254.703125 138.15625 254.28125 137.148438 253.625 136.171875 C 252.988281 135.179688 252.125 134.199219 251.203125 133.449219 C 250.304688 132.6875 249.355469 132.144531 248.601562 131.789062 C 247.847656 131.433594 247.324219 131.261719 246.976562 131.164062 C 246.871094 131.140625 246.78125 131.121094 246.71875 131.105469 Z M 255.867188 161.425781 C 255.761719 160.835938 255.550781 159.734375 255.308594 158.914062 C 255.066406 158.097656 254.800781 157.582031 254.675781 157.292969 C 254.535156 157 254.535156 156.933594 254.578125 156.945312 C 254.605469 156.96875 254.683594 157.050781 254.835938 157.363281 C 254.988281 157.671875 255.226562 158.230469 255.425781 158.765625 C 255.605469 159.308594 255.738281 159.824219 255.839844 160.15625 C 255.9375 160.503906 255.984375 160.644531 256.015625 160.78125 C 256.03125 160.851562 256.046875 160.917969 256.0625 160.988281 C 256.113281 160.773438 256.160156 160.574219 256.195312 160.355469 C 256.542969 158.863281 256.578125 158.644531 256.285156 157.070312 C 256.175781 156.378906 255.960938 155.648438 255.617188 154.628906 C 255.265625 153.589844 254.773438 152.257812 253.9375 150.75 C 253.113281 149.246094 251.941406 147.578125 250.824219 146.246094 C 249.699219 144.929688 248.625 143.949219 247.707031 143.136719 C 246.800781 142.324219 246.035156 141.675781 245.652344 141.390625 C 245.582031 141.34375 245.515625 141.292969 245.472656 141.269531 C 245.515625 141.359375 245.480469 141.304688 245.621094 141.53125 C 245.777344 141.746094 246.175781 142.390625 246.605469 143.089844 C 247.027344 143.769531 246.914062 143.5 247.242188 144.160156 C 247.570312 144.820312 247.746094 145.234375 247.726562 145.3125 C 247.710938 145.390625 247.496094 145.128906 247.242188 144.710938 C 246.988281 144.28125 247.324219 144.828125 246.847656 143.988281 C 246.347656 143.160156 245.664062 142.09375 245.332031 141.460938 L 245.3125 141.410156 C 245.324219 141.492188 245.324219 141.625 245.355469 141.777344 C 245.433594 142.328125 245.605469 143.308594 246.125 144.808594 C 246.644531 146.308594 247.496094 148.304688 248.394531 150.101562 C 249.292969 151.902344 250.226562 153.480469 251.171875 154.949219 C 252.117188 156.402344 253.09375 157.734375 253.769531 158.894531 C 254.464844 160.0625 254.886719 161.070312 255.097656 162.15625 C 255.230469 162.835938 255.292969 163.53125 255.289062 164.308594 C 255.371094 163.953125 255.453125 163.535156 255.558594 163.089844 C 255.664062 162.628906 255.78125 162.136719 255.910156 161.648438 Z M 257.855469 156.074219 C 258.054688 155.632812 258.46875 154.824219 258.765625 154.160156 C 259.078125 153.523438 259.269531 153.046875 259.421875 152.726562 C 259.558594 152.417969 259.660156 152.265625 259.695312 152.257812 C 259.742188 152.25 259.726562 152.394531 259.558594 152.839844 C 259.375 153.28125 259.039062 154.03125 258.734375 154.707031 C 258.417969 155.378906 258.125 155.957031 257.953125 156.339844 C 257.863281 156.511719 257.800781 156.644531 257.761719 156.746094 C 257.707031 157.382812 257.636719 157.96875 257.570312 158.46875 C 257.449219 159.332031 257.304688 159.949219 257.160156 160.496094 C 257.40625 160.050781 257.703125 159.617188 258.042969 159.117188 C 258.628906 158.265625 259.398438 157.179688 260.117188 156.03125 C 260.816406 154.882812 261.488281 153.664062 261.976562 152.464844 C 262.480469 151.269531 262.804688 150.097656 263.066406 148.765625 C 263.308594 147.441406 263.511719 145.964844 263.570312 144.957031 C 263.625 144.160156 263.613281 143.671875 263.578125 143.40625 C 263.488281 143.722656 263.355469 144.148438 263.203125 144.597656 C 262.996094 145.199219 262.734375 145.851562 262.5 146.363281 C 262.269531 146.875 262.074219 147.234375 261.960938 147.371094 C 261.863281 147.511719 261.851562 147.425781 261.921875 147.183594 C 262.011719 146.945312 262.183594 146.546875 262.386719 146.09375 C 262.589844 145.636719 262.824219 145.125 263.011719 144.585938 C 263.191406 144.09375 263.347656 143.5625 263.445312 143.210938 C 263.402344 143.25 263.371094 143.324219 263.320312 143.410156 C 263.195312 143.589844 263.03125 143.8125 262.597656 144.230469 C 262.160156 144.660156 261.449219 145.289062 260.773438 145.976562 C 260.101562 146.660156 259.46875 147.4375 259.023438 148.097656 C 256.90625 151.394531 258.007812 149.140625 257.902344 154.347656 C 257.886719 154.976562 257.855469 155.585938 257.800781 156.15625 C 257.824219 156.132812 257.832031 156.101562 257.855469 156.074219 Z M 254.441406 174.484375 C 254.863281 173.917969 255.683594 172.941406 256.230469 172.257812 C 256.789062 171.578125 257.085938 171.210938 257.257812 170.957031 C 257.441406 170.726562 257.5 170.609375 257.488281 170.65625 C 257.476562 170.703125 257.410156 170.929688 257.226562 171.226562 C 257.054688 171.542969 256.773438 171.929688 256.402344 172.414062 C 256.035156 172.894531 255.566406 173.449219 255.207031 173.882812 C 254.851562 174.304688 254.621094 174.605469 254.4375 174.839844 C 254.253906 175.085938 254.128906 175.269531 254.039062 175.441406 C 254.015625 175.484375 253.988281 175.527344 253.980469 175.558594 C 253.792969 176.226562 253.613281 176.851562 253.535156 177.1875 C 253.398438 177.707031 253.382812 177.640625 253.320312 177.835938 C 253.546875 177.417969 253.769531 177.015625 254 176.648438 C 254.289062 176.164062 254.574219 175.761719 255.179688 175.171875 C 255.769531 174.582031 256.671875 173.804688 257.613281 172.875 C 258.558594 171.925781 259.550781 170.84375 260.335938 169.828125 C 261.132812 168.816406 261.746094 167.855469 262.164062 166.949219 C 262.605469 166.03125 262.871094 165.167969 263.070312 164.097656 C 263.289062 163.03125 263.425781 161.765625 263.488281 160.871094 C 263.519531 160.25 263.527344 159.8125 263.503906 159.5625 C 263.449219 159.730469 263.375 159.90625 263.320312 160.070312 C 263.195312 160.398438 263.101562 160.667969 262.957031 161.152344 C 262.789062 161.664062 262.570312 162.394531 262.410156 162.875 C 262.21875 163.347656 262.085938 163.574219 262.054688 163.570312 C 262.007812 163.558594 262.054688 163.292969 262.125 163.050781 C 262.195312 162.824219 262.3125 162.59375 262.476562 162.109375 C 262.65625 161.617188 262.894531 160.863281 263.0625 160.289062 C 263.167969 159.972656 263.246094 159.699219 263.296875 159.484375 C 263.242188 159.582031 263.175781 159.730469 263.082031 159.917969 C 262.851562 160.367188 262.472656 161.007812 261.863281 161.839844 C 261.269531 162.65625 260.421875 163.675781 259.542969 164.894531 C 258.660156 166.132812 257.757812 167.574219 257.042969 168.703125 C 256.34375 169.839844 255.804688 170.636719 255.503906 171.101562 C 254.78125 172.195312 254.78125 172.066406 254.671875 172.589844 C 254.542969 173.292969 254.328125 174.132812 254.289062 174.300781 C 254.242188 174.5 254.195312 174.703125 254.148438 174.902344 C 254.207031 174.800781 254.304688 174.660156 254.441406 174.484375 Z M 244.277344 153.40625 C 244.46875 153.824219 244.800781 154.46875 245.089844 155.023438 C 245.414062 155.632812 245.695312 156.152344 245.882812 156.519531 C 246.054688 156.882812 246.148438 157.101562 246.199219 157.160156 C 246.238281 157.203125 246.261719 157.109375 246.148438 156.824219 C 246.054688 156.542969 245.832031 156.054688 245.5625 155.488281 C 245.292969 154.921875 244.949219 154.242188 244.734375 153.789062 C 244.625 153.566406 244.550781 153.40625 244.46875 153.273438 C 244.667969 153.382812 244.980469 153.632812 245.347656 153.929688 C 245.789062 154.308594 246.300781 154.738281 247.078125 155.535156 C 247.867188 156.351562 248.941406 157.542969 249.875 158.78125 C 250.808594 160.019531 251.597656 161.320312 252.109375 162.367188 C 252.625 163.394531 252.84375 164.175781 253.070312 165.054688 C 253.296875 165.949219 253.527344 166.960938 253.640625 167.859375 C 253.75 168.761719 253.742188 169.554688 253.726562 170.378906 C 253.691406 171.210938 253.65625 172.0625 253.625 172.671875 C 253.5625 173.96875 253.589844 174.074219 253.195312 175.40625 C 253.15625 175.511719 253.128906 175.621094 253.085938 175.738281 C 253.09375 175.707031 253.097656 175.691406 253.089844 175.660156 C 253.085938 175.464844 253.070312 175.183594 253.039062 174.769531 C 253.007812 174.359375 252.957031 173.8125 252.855469 173.222656 C 252.765625 172.632812 252.625 172 252.527344 171.652344 C 252.433594 171.308594 252.363281 171.257812 252.355469 171.289062 C 252.347656 171.335938 252.375 171.488281 252.421875 171.695312 C 252.453125 171.910156 252.503906 172.183594 252.585938 172.785156 C 252.671875 173.386719 252.800781 174.34375 252.804688 175.21875 C 252.816406 175.933594 252.742188 176.597656 252.671875 177.101562 C 252.519531 177.550781 252.386719 177.972656 252.269531 178.335938 C 252.128906 178.742188 252.019531 179.070312 251.925781 179.339844 C 251.941406 178.925781 251.960938 178.492188 251.949219 178.066406 C 251.910156 176.503906 251.660156 174.886719 251.046875 173.105469 C 250.449219 171.332031 249.507812 169.375 248.566406 167.679688 C 247.613281 165.984375 246.667969 164.53125 245.957031 163.230469 C 245.246094 161.929688 244.78125 160.753906 244.496094 159.632812 C 244.226562 158.515625 244.109375 157.433594 244.125 156.464844 C 244.144531 155.496094 244.292969 154.65625 244.300781 154.074219 C 244.304688 153.769531 244.277344 153.550781 244.277344 153.40625 Z M 240.675781 165.464844 C 240.929688 166.15625 241.480469 167.390625 241.839844 168.25 C 242.207031 169.097656 242.382812 169.59375 242.503906 169.898438 C 242.640625 170.203125 242.757812 170.3125 242.785156 170.269531 C 242.828125 170.230469 242.792969 170.03125 242.554688 169.390625 C 242.308594 168.734375 241.871094 167.640625 241.546875 166.820312 C 241.3125 166.183594 241.144531 165.722656 241 165.378906 C 241.316406 165.746094 241.792969 166.390625 242.390625 167.066406 C 243.070312 167.875 243.910156 168.75 244.765625 169.710938 C 245.617188 170.671875 246.503906 171.707031 247.25 172.851562 C 248.011719 173.988281 248.625 175.214844 249.050781 176.289062 C 249.492188 177.363281 249.753906 178.300781 249.898438 179.484375 C 250.042969 180.652344 250.097656 182.074219 250.011719 183.335938 C 249.914062 184.578125 249.707031 185.664062 249.539062 186.386719 C 249.347656 187.347656 249.398438 188.023438 249.074219 188.855469 C 249.109375 188.507812 249.167969 187.984375 249.171875 187.402344 C 249.199219 186.808594 249.195312 186.144531 249.078125 185.339844 C 248.976562 184.535156 248.742188 183.605469 248.597656 183.054688 C 248.4375 182.5 248.328125 182.34375 248.261719 182.28125 C 248.195312 182.230469 248.164062 182.289062 248.234375 182.546875 C 248.316406 182.808594 248.492188 183.289062 248.632812 183.9375 C 248.765625 184.601562 248.875 185.4375 248.855469 186.484375 C 248.824219 187.515625 248.699219 188.75 248.609375 189.476562 C 248.582031 189.664062 248.5625 189.804688 248.535156 189.929688 C 248.296875 190.390625 248.003906 190.90625 247.65625 191.425781 C 247.011719 192.394531 246.347656 193.242188 245.839844 193.964844 L 245.835938 193.980469 C 246.59375 192.523438 246.953125 191.617188 247.164062 190.710938 C 247.398438 189.777344 247.46875 188.851562 247.363281 187.855469 C 247.253906 186.875 246.964844 185.835938 246.386719 184.464844 C 245.800781 183.113281 244.902344 181.445312 244.027344 179.75 C 243.152344 178.070312 242.289062 176.394531 241.707031 174.542969 C 241.113281 172.683594 240.792969 170.679688 240.636719 169.070312 C 240.480469 167.480469 240.480469 166.296875 240.503906 165.652344 C 240.515625 165.398438 240.523438 165.21875 240.558594 165.132812 C 240.585938 165.21875 240.625 165.339844 240.675781 165.464844 " fill-opacity="1" fill-rule="evenodd"/></g></g></g></g><g clip-path="url(#64c1de7b48)"><g clip-path="url(#fc6618db4f)"><g clip-path="url(#53052e0d6f)"><g clip-path="url(#5671c9ec64)"><path fill="#000000" d="M 123.992188 188.238281 C 123.664062 187.859375 123.109375 187.320312 122.621094 186.863281 C 122.148438 186.40625 121.734375 185.996094 121.414062 185.714844 C 121.101562 185.410156 120.886719 185.234375 120.835938 185.230469 C 120.773438 185.226562 120.859375 185.402344 121.160156 185.738281 C 121.445312 186.0625 121.957031 186.5625 122.453125 187.046875 C 122.964844 187.53125 123.476562 188.015625 123.828125 188.371094 C 124.035156 188.582031 124.1875 188.757812 124.296875 188.878906 C 124.398438 189.117188 124.496094 189.335938 124.59375 189.558594 C 124.839844 190.070312 125.0625 190.550781 125.285156 190.972656 C 125.074219 190.757812 124.835938 190.554688 124.597656 190.347656 C 123.933594 189.835938 123.152344 189.351562 122.191406 188.726562 C 121.214844 188.105469 120.0625 187.347656 118.976562 186.378906 C 117.890625 185.410156 116.886719 184.230469 116.097656 183.160156 C 115.3125 182.09375 114.769531 181.117188 114.28125 180.175781 C 113.792969 179.21875 113.378906 178.308594 113.023438 177.304688 C 112.683594 176.296875 112.421875 175.222656 112.328125 174.597656 C 112.28125 174.234375 112.28125 174.023438 112.320312 173.917969 C 112.359375 174.023438 112.40625 174.160156 112.457031 174.308594 C 112.644531 174.785156 112.925781 175.464844 113.191406 175.988281 C 113.4375 176.515625 113.65625 176.902344 113.816406 177.125 C 113.960938 177.335938 114.0625 177.359375 114.066406 177.308594 C 114.074219 177.261719 113.976562 177.121094 113.839844 176.875 C 113.707031 176.632812 113.542969 176.265625 113.324219 175.796875 C 113.109375 175.34375 112.839844 174.789062 112.671875 174.339844 C 112.597656 174.148438 112.539062 173.964844 112.492188 173.816406 C 112.597656 173.871094 112.71875 174.054688 112.953125 174.308594 C 113.210938 174.589844 113.582031 174.960938 114.316406 175.636719 C 115.042969 176.296875 116.128906 177.265625 117.210938 178.363281 C 118.277344 179.449219 119.335938 180.648438 120.21875 181.648438 C 123.847656 185.695312 122.019531 182.371094 123.53125 186.917969 C 123.699219 187.378906 123.871094 187.859375 124.0625 188.335938 C 124.039062 188.308594 124.015625 188.28125 123.992188 188.238281 Z M 120.78125 192.214844 C 120.894531 192.367188 121.015625 192.535156 121.152344 192.714844 C 121.535156 193.210938 122.054688 193.789062 122.429688 194.253906 C 122.804688 194.703125 123.027344 195.042969 123.097656 195.203125 C 123.175781 195.347656 123.105469 195.316406 122.851562 195.050781 C 122.59375 194.765625 122.171875 194.25 121.753906 193.746094 C 121.316406 193.230469 120.882812 192.742188 120.617188 192.414062 L 120.59375 192.375 C 120.714844 192.570312 120.871094 192.828125 121.074219 193.152344 C 121.601562 193.988281 122.449219 195.253906 123.332031 196.398438 C 124.230469 197.519531 125.164062 198.523438 126.183594 199.410156 C 127.203125 200.308594 128.316406 201.09375 129.417969 201.785156 C 130.523438 202.488281 131.609375 203.101562 132.988281 204.082031 C 134.367188 205.066406 136.019531 206.40625 137.644531 207.835938 C 139.285156 209.277344 140.910156 210.785156 142.265625 212.015625 C 143.617188 213.230469 144.691406 214.152344 145.402344 214.671875 C 146.113281 215.191406 146.464844 215.320312 146.789062 215.265625 C 147.113281 215.207031 147.414062 214.960938 147.605469 214.757812 C 147.816406 214.546875 147.898438 214.351562 147.703125 214.183594 C 147.5 214.003906 146.996094 213.84375 145.695312 212.988281 C 144.40625 212.113281 142.304688 210.550781 140.808594 209.335938 C 139.332031 208.132812 138.453125 207.296875 137.65625 206.34375 C 136.882812 205.402344 136.046875 204.265625 135.625 203.242188 C 135.449219 202.828125 135.328125 202.4375 135.253906 202.03125 C 135.21875 201.945312 135.164062 201.84375 135.117188 201.722656 C 135.046875 201.480469 134.964844 201.175781 134.910156 200.863281 C 134.839844 200.554688 134.78125 200.230469 134.71875 199.742188 C 134.640625 199.257812 134.566406 198.644531 134.5 198.0625 C 134.414062 197.480469 134.367188 196.972656 134.367188 196.277344 C 134.375 195.597656 134.449219 194.722656 134.523438 194.203125 C 134.582031 193.671875 134.617188 193.484375 134.648438 193.480469 C 134.679688 193.472656 134.6875 193.648438 134.683594 193.988281 C 134.671875 194.347656 134.652344 194.835938 134.640625 195.488281 C 134.636719 196.121094 134.648438 196.878906 134.753906 197.777344 C 134.847656 198.613281 135.019531 199.578125 135.144531 200.34375 C 135.15625 200.257812 135.15625 200.179688 135.15625 200.113281 C 135.203125 198.90625 135.550781 197.464844 135.945312 196.015625 C 136.351562 194.550781 136.910156 193.046875 137.40625 191.332031 C 137.921875 189.632812 138.386719 187.714844 138.574219 185.421875 C 138.742188 183.117188 138.632812 180.441406 138.542969 178.617188 C 138.46875 176.804688 138.417969 175.875 138.410156 175.34375 L 138.410156 175.261719 C 138.351562 175.648438 138.265625 176.121094 138.160156 176.566406 C 138.003906 177.296875 137.828125 177.953125 137.730469 178.574219 C 137.609375 179.183594 137.554688 179.777344 137.527344 180.089844 C 137.503906 180.40625 137.492188 180.421875 137.433594 180.308594 C 137.390625 180.1875 137.328125 179.925781 137.386719 179.265625 C 137.453125 178.621094 137.652344 177.585938 137.796875 176.746094 C 137.875 176.308594 137.949219 175.917969 138.019531 175.59375 C 137.832031 176.042969 137.554688 176.671875 137.078125 177.472656 C 136.371094 178.734375 135.222656 180.402344 134.375 181.988281 C 133.546875 183.566406 133 185.050781 132.683594 186.5625 C 132.367188 188.074219 132.285156 189.628906 132.378906 191.257812 C 132.460938 192.890625 132.742188 194.621094 133.0625 196.039062 C 133.382812 197.457031 133.746094 198.570312 134.070312 199.5 C 134.378906 200.433594 134.636719 201.21875 134.769531 201.804688 C 134.902344 202.386719 134.914062 202.804688 134.757812 202.96875 C 134.621094 203.132812 134.308594 203.039062 133.84375 202.546875 C 133.390625 202.035156 132.785156 201.136719 131.839844 199.585938 C 131.226562 198.574219 130.488281 197.300781 129.800781 196.097656 C 129.742188 195.980469 129.644531 195.839844 129.503906 195.632812 C 129.238281 195.253906 128.855469 194.695312 128.363281 194.011719 C 127.875 193.347656 127.300781 192.570312 126.640625 191.570312 C 125.980469 190.570312 125.253906 189.34375 124.785156 188.414062 C 124.503906 187.878906 124.328125 187.449219 124.199219 187.105469 C 124.074219 186.828125 123.960938 186.480469 123.789062 185.855469 C 123.582031 185.078125 123.285156 183.851562 123.039062 182.480469 C 122.863281 181.40625 122.773438 180.519531 122.453125 179.457031 C 122.285156 178.863281 121.984375 178.027344 121.660156 176.953125 C 121.320312 175.863281 120.949219 174.523438 120.726562 173.667969 C 120.429688 172.585938 120.292969 171.613281 120.101562 170.492188 C 119.824219 168.691406 119.664062 166.851562 119.347656 165.09375 C 119.28125 164.671875 119.164062 164.148438 119.019531 163.503906 C 118.855469 162.859375 118.671875 162.109375 118.433594 160.996094 C 118.128906 159.511719 117.714844 157.746094 117.554688 156.257812 C 117.417969 155.011719 117.40625 153.414062 117.449219 152.109375 C 117.492188 150.804688 117.585938 149.796875 117.683594 148.882812 C 117.746094 148.171875 117.828125 147.472656 117.894531 146.765625 C 117.964844 145.9375 118.050781 145.125 118.105469 144.289062 C 118.171875 143.382812 118.214844 142.371094 118.328125 141.453125 C 118.375 141.023438 118.472656 140.386719 118.660156 139.4375 C 118.835938 138.507812 119.097656 137.265625 119.4375 136.058594 C 119.773438 134.847656 120.183594 133.6875 120.761719 132.40625 C 121.335938 131.113281 122.0625 129.71875 122.894531 128.363281 C 123.742188 126.992188 124.660156 125.667969 125.371094 124.46875 C 126.050781 123.296875 126.519531 122.253906 126.816406 121.277344 C 127.109375 120.304688 127.242188 119.402344 127.308594 118.628906 C 127.371094 117.851562 127.375 117.21875 127.4375 116.800781 C 127.46875 116.582031 127.515625 116.425781 127.535156 116.308594 C 127.363281 116.542969 127.148438 116.800781 126.941406 117.089844 C 126.640625 117.464844 126.367188 117.882812 126.140625 118.226562 C 125.929688 118.566406 125.769531 118.859375 125.644531 119.019531 C 125.507812 119.195312 125.40625 119.234375 125.40625 119.171875 C 125.40625 119.105469 125.511719 118.9375 125.734375 118.5625 C 125.96875 118.183594 126.304688 117.605469 126.605469 117.167969 C 126.90625 116.710938 127.167969 116.375 127.378906 116.101562 C 127.210938 116.140625 126.921875 116.285156 126.457031 116.570312 C 125.792969 116.980469 124.761719 117.664062 123.84375 118.570312 C 122.941406 119.484375 122.152344 120.601562 121.605469 121.664062 C 121.058594 122.726562 120.746094 123.753906 120.511719 125.214844 C 120.28125 126.675781 120.132812 128.570312 119.96875 130.191406 C 119.917969 130.816406 119.84375 131.402344 119.785156 131.933594 C 119.96875 131.242188 120.199219 130.429688 120.410156 129.800781 C 120.703125 128.957031 120.9375 128.5 121.121094 128.117188 C 121.324219 127.730469 121.480469 127.4375 121.546875 127.375 C 121.59375 127.300781 121.546875 127.441406 121.402344 127.796875 C 121.242188 128.15625 121.003906 128.726562 120.777344 129.425781 C 120.535156 130.128906 120.335938 130.949219 120.128906 131.675781 C 119.929688 132.355469 119.726562 132.949219 119.601562 133.316406 C 119.546875 133.636719 119.503906 133.9375 119.453125 134.222656 C 119.269531 135.320312 119.078125 136.171875 118.933594 136.882812 C 118.792969 137.609375 118.699219 138.199219 118.617188 138.75 C 118.53125 139.304688 118.441406 139.828125 118.359375 140.234375 C 118.269531 140.625 118.191406 140.984375 118.125 141.402344 C 117.996094 142.175781 117.847656 143.164062 117.765625 143.929688 C 117.59375 145.230469 117.65625 145.636719 117.613281 146.796875 C 117.601562 147.171875 117.566406 147.664062 117.523438 148.109375 C 117.4375 148.9375 117.300781 149.679688 117.222656 150.605469 C 117.140625 151.53125 117.066406 152.90625 117.089844 154.277344 C 117.109375 155.648438 117.195312 157.003906 117.375 158.242188 C 117.65625 160.183594 118.339844 162.003906 118.773438 163.914062 C 118.929688 164.671875 119.066406 165.417969 119.1875 166.167969 C 119.304688 166.902344 119.453125 167.691406 119.574219 168.441406 C 119.769531 169.59375 119.929688 170.871094 120.109375 171.863281 C 120.265625 172.847656 120.425781 173.703125 120.6875 174.777344 C 120.960938 175.847656 121.277344 176.957031 121.496094 177.714844 C 121.714844 178.476562 122 179.238281 122.222656 179.996094 C 122.410156 180.683594 122.5625 181.503906 122.691406 182.140625 C 122.953125 183.519531 123.09375 184.703125 123.535156 186.089844 C 123.84375 187.023438 124.285156 188.121094 124.703125 189.046875 C 125.121094 189.972656 125.492188 190.761719 125.769531 191.265625 C 126.296875 192.261719 127.070312 193.1875 127.703125 194.144531 C 128.164062 194.835938 128.585938 195.484375 128.9375 196.050781 C 129.71875 197.363281 129.53125 197.535156 130.597656 198.847656 C 130.953125 199.285156 131.175781 199.621094 131.59375 200.257812 C 132.007812 200.890625 132.453125 201.648438 132.777344 202.15625 C 133.089844 202.683594 133.285156 202.980469 133.367188 203.140625 C 133.457031 203.3125 133.4375 203.367188 133.414062 203.40625 C 133.390625 203.441406 133.375 203.445312 133.320312 203.425781 C 133.269531 203.40625 133.171875 203.328125 133.085938 203.234375 C 133.0625 203.207031 133.050781 203.164062 133.03125 203.136719 C 133.015625 203.136719 133.011719 203.121094 133.011719 203.121094 C 132.871094 203.074219 132.546875 202.839844 132.066406 202.5625 C 131.585938 202.28125 130.933594 201.957031 130.4375 201.683594 C 129.941406 201.40625 129.601562 201.175781 129.292969 200.953125 C 128.988281 200.734375 128.707031 200.488281 128.851562 200.554688 C 128.988281 200.601562 129.535156 200.964844 130.277344 201.394531 C 131.011719 201.8125 131.945312 202.3125 132.398438 202.550781 C 132.613281 202.644531 132.722656 202.703125 132.792969 202.71875 C 132.664062 202.503906 132.421875 202.21875 132.117188 201.722656 C 131.8125 201.226562 131.363281 200.519531 130.851562 199.824219 C 130.34375 199.132812 129.6875 198.292969 129.355469 197.964844 C 129.007812 197.636719 128.996094 197.589844 128.839844 197.464844 C 128.457031 197.195312 127.917969 196.78125 127.191406 196.285156 C 126.257812 195.621094 125.003906 194.835938 124 194.238281 C 122.988281 193.660156 122.210938 193.285156 121.640625 192.894531 C 121.28125 192.652344 121.003906 192.425781 120.78125 192.214844 Z M 115.570312 129.261719 C 115.507812 129.550781 115.378906 130.050781 115.332031 130.546875 C 115.277344 131.027344 115.304688 131.492188 115.328125 131.890625 C 115.351562 132.273438 115.371094 132.574219 115.386719 132.78125 C 115.390625 133.007812 115.363281 133.113281 115.320312 133.136719 C 115.296875 133.160156 115.261719 133.085938 115.230469 132.800781 C 115.199219 132.515625 115.171875 132.039062 115.167969 131.535156 C 115.167969 131.035156 115.195312 130.511719 115.234375 130.113281 C 115.269531 129.847656 115.316406 129.628906 115.34375 129.476562 C 115.242188 129.660156 115.082031 129.9375 114.894531 130.386719 C 114.640625 130.976562 114.328125 131.855469 114.136719 132.9375 C 113.949219 134.015625 113.875 135.324219 113.984375 136.449219 C 114.097656 137.574219 114.375 138.53125 114.707031 139.425781 C 115.019531 140.308594 115.363281 141.121094 115.695312 141.808594 C 116.023438 142.476562 116.339844 143.019531 116.636719 143.550781 C 116.933594 144.085938 117.195312 144.609375 117.347656 144.992188 C 117.371094 145.019531 117.378906 145.050781 117.390625 145.097656 C 117.390625 145.035156 117.394531 144.984375 117.398438 144.933594 C 117.417969 144.867188 117.414062 144.785156 117.429688 144.714844 C 117.40625 144.609375 117.378906 144.484375 117.363281 144.34375 C 117.285156 144.003906 117.195312 143.605469 117.039062 143.058594 C 116.898438 142.507812 116.671875 141.796875 116.546875 141.308594 C 116.402344 140.820312 116.328125 140.566406 116.320312 140.453125 C 116.328125 140.339844 116.386719 140.390625 116.476562 140.578125 C 116.574219 140.785156 116.675781 141.164062 116.871094 141.816406 C 117.050781 142.472656 117.289062 143.390625 117.414062 144.007812 C 117.441406 144.132812 117.449219 144.242188 117.472656 144.335938 C 117.800781 141.394531 117.617188 138.378906 117.085938 135.457031 C 116.875 134.324219 116.53125 133.21875 116.253906 132.359375 C 115.980469 131.5 115.777344 130.898438 115.683594 130.402344 C 115.585938 129.90625 115.578125 129.519531 115.582031 129.324219 C 115.574219 129.292969 115.585938 129.257812 115.582031 129.242188 Z M 128.210938 131.125 C 127.816406 131.378906 127.144531 131.820312 126.558594 132.277344 C 125.96875 132.71875 125.460938 133.171875 125.1875 133.445312 C 124.90625 133.703125 124.867188 133.808594 124.953125 133.773438 C 125.042969 133.734375 125.292969 133.566406 125.628906 133.28125 C 125.96875 133.007812 126.414062 132.632812 126.835938 132.292969 C 127.273438 131.953125 127.6875 131.664062 127.984375 131.484375 C 128.191406 131.339844 128.335938 131.261719 128.453125 131.199219 C 128.46875 131.277344 128.394531 131.441406 128.238281 131.6875 C 128.070312 131.933594 127.824219 132.265625 127.242188 133.09375 C 126.675781 133.917969 125.78125 135.21875 124.675781 136.441406 C 123.566406 137.648438 122.246094 138.753906 121.3125 139.664062 C 120.386719 140.550781 119.855469 141.238281 119.46875 141.875 C 119.078125 142.5 118.835938 143.054688 118.605469 143.804688 C 118.46875 144.207031 118.351562 144.667969 118.234375 145.148438 C 118.253906 144.886719 118.273438 144.394531 118.316406 143.886719 C 118.335938 143.816406 118.347656 143.730469 118.378906 143.660156 C 118.476562 143.3125 118.628906 142.84375 118.886719 142.285156 C 119.144531 141.722656 119.523438 141.054688 119.867188 140.523438 C 120.214844 139.992188 120.519531 139.566406 120.699219 139.300781 C 120.863281 139.035156 120.890625 138.933594 120.835938 138.976562 C 120.761719 139.011719 120.597656 139.207031 120.339844 139.558594 C 120.082031 139.910156 119.746094 140.40625 119.378906 141.054688 C 119.03125 141.71875 118.648438 142.515625 118.429688 143.035156 C 118.425781 143.082031 118.402344 143.121094 118.378906 143.160156 C 118.398438 143.039062 118.417969 142.90625 118.4375 142.789062 C 118.492188 142.535156 118.507812 142.304688 118.609375 142.199219 C 118.710938 142.082031 118.890625 141.730469 119.089844 141.199219 C 119.273438 140.660156 119.5 139.894531 119.847656 139.007812 C 120.175781 138.125 120.609375 137.121094 121.269531 136.144531 C 121.914062 135.15625 122.785156 134.183594 123.707031 133.441406 C 124.613281 132.683594 125.566406 132.144531 126.324219 131.796875 C 127.078125 131.449219 127.601562 131.28125 127.949219 131.183594 C 128.058594 131.160156 128.148438 131.140625 128.210938 131.125 Z M 118.859375 161.386719 C 118.964844 160.792969 119.183594 159.695312 119.433594 158.875 C 119.679688 158.058594 119.949219 157.546875 120.078125 157.257812 C 120.21875 156.96875 120.222656 156.902344 120.175781 156.914062 C 120.148438 156.933594 120.070312 157.015625 119.914062 157.328125 C 119.761719 157.636719 119.519531 158.195312 119.316406 158.726562 C 119.136719 159.269531 118.996094 159.785156 118.894531 160.117188 C 118.792969 160.460938 118.746094 160.601562 118.710938 160.738281 C 118.695312 160.808594 118.679688 160.875 118.664062 160.945312 C 118.613281 160.730469 118.570312 160.527344 118.535156 160.308594 C 118.199219 158.816406 118.164062 158.597656 118.464844 157.023438 C 118.582031 156.335938 118.804688 155.605469 119.152344 154.585938 C 119.511719 153.550781 120.011719 152.222656 120.859375 150.71875 C 121.691406 149.222656 122.875 147.5625 124.003906 146.238281 C 125.136719 144.929688 126.21875 143.957031 127.140625 143.148438 C 128.050781 142.34375 128.820312 141.699219 129.207031 141.417969 C 129.277344 141.371094 129.34375 141.324219 129.386719 141.296875 C 129.34375 141.386719 129.378906 141.332031 129.238281 141.558594 C 129.078125 141.773438 128.675781 142.414062 128.242188 143.109375 C 127.816406 143.789062 127.933594 143.519531 127.597656 144.179688 C 127.265625 144.835938 127.085938 145.25 127.105469 145.328125 C 127.121094 145.402344 127.335938 145.144531 127.59375 144.730469 C 127.851562 144.300781 127.511719 144.847656 127.996094 144.007812 C 128.5 143.183594 129.1875 142.121094 129.527344 141.492188 L 129.546875 141.4375 C 129.535156 141.523438 129.53125 141.652344 129.503906 141.804688 C 129.417969 142.359375 129.238281 143.335938 128.710938 144.832031 C 128.183594 146.328125 127.316406 148.320312 126.40625 150.113281 C 125.496094 151.90625 124.550781 153.476562 123.597656 154.941406 C 122.640625 156.386719 121.65625 157.710938 120.972656 158.867188 C 120.269531 160.03125 119.839844 161.035156 119.621094 162.121094 C 119.484375 162.796875 119.417969 163.492188 119.417969 164.269531 C 119.335938 163.914062 119.257812 163.496094 119.15625 163.050781 C 119.050781 162.589844 118.941406 162.09375 118.8125 161.605469 Z M 116.90625 156.019531 C 116.710938 155.578125 116.300781 154.765625 116.007812 154.101562 C 115.699219 153.457031 115.511719 152.984375 115.359375 152.660156 C 115.226562 152.351562 115.125 152.195312 115.09375 152.1875 C 115.042969 152.183594 115.058594 152.324219 115.222656 152.773438 C 115.40625 153.21875 115.734375 153.96875 116.035156 154.644531 C 116.347656 155.320312 116.636719 155.898438 116.804688 156.28125 C 116.894531 156.457031 116.957031 156.589844 116.996094 156.695312 C 117.042969 157.332031 117.109375 157.914062 117.175781 158.417969 C 117.292969 159.28125 117.429688 159.894531 117.570312 160.449219 C 117.324219 160 117.035156 159.566406 116.695312 159.058594 C 116.117188 158.203125 115.355469 157.113281 114.644531 155.964844 C 113.953125 154.808594 113.289062 153.585938 112.808594 152.382812 C 112.3125 151.183594 111.996094 150.007812 111.742188 148.675781 C 111.507812 147.351562 111.316406 145.875 111.265625 144.867188 C 111.214844 144.070312 111.234375 143.578125 111.269531 143.3125 C 111.355469 143.632812 111.484375 144.054688 111.636719 144.507812 C 111.835938 145.109375 112.097656 145.761719 112.324219 146.277344 C 112.554688 146.792969 112.746094 147.152344 112.859375 147.289062 C 112.953125 147.429688 112.96875 147.34375 112.898438 147.101562 C 112.808594 146.863281 112.640625 146.464844 112.441406 146.007812 C 112.242188 145.550781 112.011719 145.035156 111.824219 144.496094 C 111.648438 144.003906 111.496094 143.46875 111.402344 143.121094 C 111.441406 143.160156 111.476562 143.234375 111.527344 143.320312 C 111.648438 143.5 111.8125 143.722656 112.242188 144.144531 C 112.679688 144.578125 113.382812 145.210938 114.054688 145.902344 C 114.722656 146.589844 115.351562 147.371094 115.789062 148.035156 C 117.886719 151.347656 116.796875 149.082031 116.867188 154.292969 C 116.882812 154.921875 116.90625 155.53125 116.957031 156.105469 C 116.933594 156.078125 116.929688 156.046875 116.90625 156.019531 Z M 120.195312 174.449219 C 119.777344 173.882812 118.960938 172.902344 118.421875 172.214844 C 117.867188 171.53125 117.570312 171.160156 117.402344 170.90625 C 117.222656 170.671875 117.164062 170.558594 117.171875 170.605469 C 117.183594 170.648438 117.25 170.878906 117.429688 171.175781 C 117.601562 171.496094 117.878906 171.882812 118.246094 172.367188 C 118.613281 172.851562 119.078125 173.410156 119.433594 173.847656 C 119.785156 174.269531 120.015625 174.574219 120.195312 174.804688 C 120.378906 175.054688 120.5 175.238281 120.589844 175.414062 C 120.617188 175.457031 120.640625 175.5 120.648438 175.53125 C 120.832031 176.199219 121.003906 176.824219 121.082031 177.164062 C 121.214844 177.683594 121.234375 177.613281 121.292969 177.808594 C 121.070312 177.390625 120.851562 176.988281 120.621094 176.621094 C 120.335938 176.132812 120.050781 175.730469 119.453125 175.136719 C 118.867188 174.539062 117.96875 173.757812 117.03125 172.820312 C 116.09375 171.867188 115.109375 170.777344 114.332031 169.757812 C 113.539062 168.738281 112.9375 167.777344 112.523438 166.867188 C 112.089844 165.945312 111.828125 165.082031 111.632812 164.007812 C 111.425781 162.9375 111.296875 161.671875 111.242188 160.78125 C 111.210938 160.15625 111.210938 159.71875 111.234375 159.472656 C 111.289062 159.636719 111.359375 159.8125 111.414062 159.980469 C 111.535156 160.308594 111.628906 160.578125 111.769531 161.066406 C 111.933594 161.578125 112.148438 162.304688 112.304688 162.789062 C 112.492188 163.261719 112.625 163.492188 112.65625 163.484375 C 112.703125 163.476562 112.65625 163.210938 112.585938 162.96875 C 112.519531 162.738281 112.402344 162.507812 112.246094 162.023438 C 112.070312 161.53125 111.832031 160.773438 111.671875 160.199219 C 111.566406 159.882812 111.488281 159.605469 111.441406 159.390625 C 111.496094 159.492188 111.558594 159.640625 111.652344 159.828125 C 111.882812 160.277344 112.253906 160.921875 112.859375 161.757812 C 113.445312 162.578125 114.289062 163.601562 115.160156 164.828125 C 116.035156 166.070312 116.925781 167.519531 117.632812 168.65625 C 118.324219 169.792969 118.855469 170.59375 119.15625 171.0625 C 119.871094 172.160156 119.871094 172.03125 119.976562 172.558594 C 120.101562 173.257812 120.308594 174.101562 120.347656 174.269531 C 120.394531 174.472656 120.4375 174.671875 120.484375 174.871094 C 120.429688 174.769531 120.332031 174.628906 120.195312 174.449219 Z M 130.5 153.441406 C 130.304688 153.859375 129.96875 154.5 129.675781 155.054688 C 129.347656 155.660156 129.0625 156.179688 128.875 156.546875 C 128.699219 156.910156 128.605469 157.125 128.554688 157.183594 C 128.515625 157.226562 128.492188 157.132812 128.605469 156.847656 C 128.703125 156.566406 128.929688 156.082031 129.203125 155.515625 C 129.476562 154.953125 129.820312 154.277344 130.039062 153.820312 C 130.152344 153.601562 130.226562 153.441406 130.308594 153.308594 C 130.109375 153.417969 129.796875 153.667969 129.429688 153.960938 C 128.984375 154.335938 128.46875 154.761719 127.6875 155.550781 C 126.890625 156.363281 125.808594 157.546875 124.867188 158.777344 C 123.925781 160.011719 123.128906 161.308594 122.609375 162.347656 C 122.085938 163.375 121.863281 164.152344 121.628906 165.03125 C 121.394531 165.925781 121.160156 166.933594 121.042969 167.835938 C 120.925781 168.734375 120.925781 169.527344 120.9375 170.351562 C 120.964844 171.183594 120.996094 172.035156 121.023438 172.644531 C 121.074219 173.941406 121.050781 174.046875 121.433594 175.382812 C 121.472656 175.488281 121.5 175.597656 121.542969 175.714844 C 121.535156 175.683594 121.53125 175.667969 121.539062 175.636719 C 121.542969 175.441406 121.558594 175.160156 121.59375 174.75 C 121.628906 174.335938 121.683594 173.789062 121.789062 173.199219 C 121.882812 172.613281 122.027344 171.980469 122.125 171.636719 C 122.226562 171.289062 122.292969 171.242188 122.300781 171.269531 C 122.3125 171.316406 122.28125 171.46875 122.230469 171.675781 C 122.203125 171.890625 122.148438 172.164062 122.0625 172.765625 C 121.972656 173.367188 121.835938 174.324219 121.824219 175.199219 C 121.8125 175.914062 121.882812 176.578125 121.945312 177.082031 C 122.097656 177.53125 122.226562 177.957031 122.339844 178.320312 C 122.480469 178.722656 122.585938 179.054688 122.679688 179.324219 C 122.664062 178.910156 122.648438 178.476562 122.664062 178.050781 C 122.710938 176.488281 122.972656 174.875 123.597656 173.097656 C 124.207031 171.324219 125.164062 169.378906 126.113281 167.6875 C 127.082031 166 128.035156 164.550781 128.753906 163.253906 C 129.472656 161.960938 129.945312 160.785156 130.238281 159.667969 C 130.515625 158.554688 130.640625 157.472656 130.632812 156.503906 C 130.621094 155.535156 130.476562 154.691406 130.476562 154.113281 C 130.46875 153.804688 130.5 153.589844 130.5 153.441406 Z M 134.023438 165.527344 C 133.761719 166.21875 133.203125 167.445312 132.835938 168.304688 C 132.464844 169.148438 132.289062 169.640625 132.164062 169.945312 C 132.023438 170.25 131.90625 170.359375 131.878906 170.316406 C 131.835938 170.277344 131.875 170.074219 132.113281 169.4375 C 132.367188 168.78125 132.8125 167.695312 133.140625 166.875 C 133.378906 166.238281 133.550781 165.78125 133.695312 165.4375 C 133.378906 165.800781 132.898438 166.445312 132.292969 167.117188 C 131.609375 167.917969 130.761719 168.789062 129.902344 169.746094 C 129.042969 170.699219 128.152344 171.726562 127.398438 172.867188 C 126.628906 173.996094 126.003906 175.222656 125.574219 176.292969 C 125.125 177.363281 124.855469 178.300781 124.707031 179.484375 C 124.550781 180.648438 124.488281 182.074219 124.566406 183.332031 C 124.65625 184.574219 124.851562 185.664062 125.015625 186.386719 C 125.203125 187.347656 125.144531 188.023438 125.464844 188.859375 C 125.433594 188.507812 125.378906 187.988281 125.375 187.40625 C 125.355469 186.8125 125.363281 186.144531 125.488281 185.339844 C 125.59375 184.539062 125.832031 183.613281 125.980469 183.0625 C 126.144531 182.507812 126.253906 182.351562 126.320312 182.289062 C 126.390625 182.242188 126.417969 182.296875 126.347656 182.558594 C 126.265625 182.820312 126.082031 183.296875 125.941406 183.945312 C 125.800781 184.605469 125.6875 185.441406 125.699219 186.492188 C 125.722656 187.523438 125.84375 188.757812 125.925781 189.484375 C 125.953125 189.671875 125.96875 189.8125 125.996094 189.9375 C 126.230469 190.402344 126.523438 190.917969 126.867188 191.4375 C 127.503906 192.410156 128.164062 193.265625 128.664062 193.992188 L 128.667969 194.007812 C 127.917969 192.542969 127.570312 191.636719 127.363281 190.726562 C 127.136719 189.789062 127.070312 188.867188 127.183594 187.871094 C 127.296875 186.890625 127.59375 185.851562 128.183594 184.488281 C 128.777344 183.140625 129.683594 181.476562 130.570312 179.789062 C 131.460938 178.113281 132.335938 176.445312 132.929688 174.59375 C 133.535156 172.742188 133.871094 170.742188 134.035156 169.132812 C 134.203125 167.539062 134.210938 166.359375 134.191406 165.714844 C 134.183594 165.457031 134.175781 165.28125 134.140625 165.191406 C 134.109375 165.28125 134.074219 165.402344 134.023438 165.527344 " fill-opacity="1" fill-rule="evenodd"/></g></g></g></g><path fill="#424446" d="M 192.28125 144.328125 L 181.519531 144.328125 L 181.519531 141.636719 L 192.28125 141.636719 L 192.28125 144.328125 " fill-opacity="1" fill-rule="nonzero"/><path fill="#424446" d="M 189.609375 196.90625 L 184.339844 196.90625 L 184.339844 143.765625 L 189.609375 143.765625 L 189.609375 196.90625 " fill-opacity="1" fill-rule="nonzero"/><path fill="#424446" d="M 195.71875 195.5625 L 179.574219 195.5625 L 179.574219 192.871094 L 195.71875 192.871094 L 195.71875 195.5625 " fill-opacity="1" fill-rule="nonzero"/><path fill="#424446" d="M 186.898438 152.550781 C 181.71875 152.550781 178.246094 150.589844 174.886719 148.691406 C 170.859375 146.417969 166.699219 144.066406 158.980469 144.695312 L 158.761719 142.015625 C 167.292969 141.316406 172.03125 143.992188 176.210938 146.351562 C 179.542969 148.234375 182.425781 149.859375 186.898438 149.859375 L 186.898438 152.550781 " fill-opacity="1" fill-rule="nonzero"/><path fill="#424446" d="M 186.972656 152.550781 L 186.972656 149.855469 C 191.453125 149.855469 194.332031 148.234375 197.667969 146.351562 C 201.84375 143.992188 206.582031 141.320312 215.113281 142.015625 L 214.894531 144.695312 C 207.175781 144.0625 203.019531 146.417969 198.988281 148.691406 C 195.628906 150.589844 192.160156 152.550781 186.972656 152.550781 " fill-opacity="1" fill-rule="nonzero"/><g clip-path="url(#7c736440eb)"><path fill="#424446" d="M 200.765625 198.253906 L 174.640625 198.253906 L 174.640625 195.5625 L 200.765625 195.5625 L 200.765625 198.253906 " fill-opacity="1" fill-rule="nonzero"/></g><g clip-path="url(#1f8326afd5)"><path fill="#000000" d="M 189.964844 137.527344 C 189.964844 139.175781 188.625 140.515625 186.972656 140.515625 C 185.324219 140.515625 183.984375 139.175781 183.984375 137.527344 C 183.984375 135.875 185.324219 134.539062 186.972656 134.539062 C 188.625 134.539062 189.964844 135.875 189.964844 137.527344 " fill-opacity="1" fill-rule="nonzero"/></g><path fill="#424446" d="M 154 175.453125 L 153.128906 175.238281 L 161.128906 143.140625 L 162 143.359375 L 154 175.453125 " fill-opacity="1" fill-rule="nonzero"/><path fill="#424446" d="M 169.125 175.453125 L 161.128906 143.359375 L 162 143.140625 L 169.996094 175.238281 L 169.125 175.453125 " fill-opacity="1" fill-rule="nonzero"/><path fill="#424446" d="M 162.011719 176.019531 L 161.113281 176.019531 L 161.113281 143.25 L 162.011719 143.25 L 162.011719 176.019531 " fill-opacity="1" fill-rule="nonzero"/><path fill="#424446" d="M 205.871094 175.453125 L 205 175.238281 L 212.996094 143.140625 L 213.871094 143.359375 L 205.871094 175.453125 " fill-opacity="1" fill-rule="nonzero"/><g clip-path="url(#30d016fc87)"><path fill="#424446" d="M 220.996094 175.453125 L 212.996094 143.359375 L 213.871094 143.140625 L 221.867188 175.238281 L 220.996094 175.453125 " fill-opacity="1" fill-rule="nonzero"/></g><g clip-path="url(#11d41d77e6)"><path fill="#424446" d="M 161.5625 175.128906 L 152.894531 175.128906 C 152.894531 175.128906 153.539062 180.71875 161.5625 180.71875 C 169.585938 180.71875 170.234375 175.128906 170.234375 175.128906 L 161.5625 175.128906 " fill-opacity="1" fill-rule="nonzero"/></g><path fill="#424446" d="M 213.882812 176.019531 L 212.984375 176.019531 L 212.984375 143.25 L 213.882812 143.25 L 213.882812 176.019531 " fill-opacity="1" fill-rule="nonzero"/><path fill="#000000" d="M 164.554688 143.25 C 164.554688 144.898438 163.214844 146.238281 161.5625 146.238281 C 159.914062 146.238281 158.574219 144.898438 158.574219 143.25 C 158.574219 141.597656 159.914062 140.261719 161.5625 140.261719 C 163.214844 140.261719 164.554688 141.597656 164.554688 143.25 " fill-opacity="1" fill-rule="nonzero"/><path fill="#000000" d="M 216.273438 143.25 C 216.273438 144.898438 214.933594 146.238281 213.285156 146.238281 C 211.632812 146.238281 210.292969 144.898438 210.292969 143.25 C 210.292969 141.597656 211.632812 140.261719 213.285156 140.261719 C 214.933594 140.261719 216.273438 141.597656 216.273438 143.25 " fill-opacity="1" fill-rule="nonzero"/><g clip-path="url(#6d92d85b8c)"><path fill="#424446" d="M 213.433594 175.128906 L 204.761719 175.128906 C 204.761719 175.128906 205.410156 180.71875 213.433594 180.71875 C 221.457031 180.71875 222.105469 175.128906 222.105469 175.128906 L 213.433594 175.128906 " fill-opacity="1" fill-rule="nonzero"/></g><path fill="#000000" d="M 170.234375 175.128906 L 161.5625 175.128906 L 161.5625 180.71875 C 169.585938 180.71875 170.234375 175.128906 170.234375 175.128906 " fill-opacity="1" fill-rule="nonzero"/><path fill="#000000" d="M 189.609375 196.90625 L 186.976562 196.90625 L 186.976562 143.765625 L 189.609375 143.765625 L 189.609375 196.90625 " fill-opacity="1" fill-rule="nonzero"/><g clip-path="url(#36b3d63eda)"><path fill="#000000" d="M 222.101562 175.128906 L 213.433594 175.128906 L 213.433594 180.71875 C 221.453125 180.71875 222.101562 175.128906 222.101562 175.128906 " fill-opacity="1" fill-rule="nonzero"/></g><path fill="#000000" d="M 195.71875 195.5625 L 186.976562 195.5625 L 186.976562 192.871094 L 195.71875 192.871094 L 195.71875 195.5625 " fill-opacity="1" fill-rule="nonzero"/><g clip-path="url(#a73aa4c208)"><path fill="#000000" d="M 200.765625 198.253906 L 186.976562 198.253906 L 186.976562 195.5625 L 200.765625 195.5625 L 200.765625 198.253906 " fill-opacity="1" fill-rule="nonzero"/></g><path fill="#000000" d="M 192.28125 144.328125 L 186.976562 144.328125 L 186.976562 141.636719 L 192.28125 141.636719 L 192.28125 144.328125 " fill-opacity="1" fill-rule="nonzero"/><g fill="#000000" fill-opacity="1"><g transform="translate(160.600642, 239.671761)"><g><path d="M 6.15625 -0.953125 C 6.738281 -0.953125 7.207031 -1.023438 7.5625 -1.171875 C 7.925781 -1.328125 8.21875 -1.566406 8.4375 -1.890625 C 8.664062 -2.210938 8.875 -2.671875 9.0625 -3.265625 C 9.539062 -3.179688 9.898438 -3.019531 10.140625 -2.78125 C 9.898438 -2.0625 9.71875 -1.125 9.59375 0.03125 C 8.53125 0.0078125 7.257812 0 5.78125 0 C 3.394531 0 1.757812 0.015625 0.875 0.046875 C 0.875 -0.390625 0.910156 -0.703125 0.984375 -0.890625 C 1.316406 -0.921875 1.570312 -0.984375 1.75 -1.078125 C 1.925781 -1.171875 2.046875 -1.347656 2.109375 -1.609375 C 2.179688 -1.867188 2.21875 -2.242188 2.21875 -2.734375 L 2.21875 -9.5625 C 2.21875 -10.007812 2.179688 -10.347656 2.109375 -10.578125 C 2.046875 -10.804688 1.925781 -10.96875 1.75 -11.0625 C 1.570312 -11.15625 1.316406 -11.210938 0.984375 -11.234375 C 0.921875 -11.453125 0.890625 -11.769531 0.890625 -12.1875 C 1.691406 -12.15625 2.503906 -12.140625 3.328125 -12.140625 C 4.234375 -12.140625 5.046875 -12.15625 5.765625 -12.1875 C 5.765625 -11.757812 5.726562 -11.441406 5.65625 -11.234375 C 5.320312 -11.210938 5.070312 -11.15625 4.90625 -11.0625 C 4.738281 -10.96875 4.617188 -10.800781 4.546875 -10.5625 C 4.472656 -10.332031 4.4375 -9.988281 4.4375 -9.53125 L 4.4375 -2.75 C 4.4375 -2.257812 4.476562 -1.882812 4.5625 -1.625 C 4.644531 -1.375 4.796875 -1.195312 5.015625 -1.09375 C 5.234375 -1 5.5625 -0.953125 6 -0.953125 Z M 6.15625 -0.953125 "/></g></g></g><g fill="#000000" fill-opacity="1"><g transform="translate(171.066084, 239.671761)"><g><path d="M 9.328125 -3.265625 C 9.796875 -3.179688 10.15625 -3.019531 10.40625 -2.78125 C 10.144531 -1.96875 9.960938 -1.03125 9.859375 0.03125 C 8.773438 0.0078125 7.414062 0 5.78125 0 C 3.394531 0 1.757812 0.015625 0.875 0.046875 C 0.875 -0.390625 0.910156 -0.703125 0.984375 -0.890625 C 1.316406 -0.921875 1.566406 -0.984375 1.734375 -1.078125 C 1.910156 -1.171875 2.03125 -1.34375 2.09375 -1.59375 C 2.164062 -1.84375 2.203125 -2.222656 2.203125 -2.734375 L 2.203125 -9.5625 C 2.203125 -10.007812 2.164062 -10.347656 2.09375 -10.578125 C 2.03125 -10.804688 1.910156 -10.96875 1.734375 -11.0625 C 1.554688 -11.15625 1.300781 -11.210938 0.96875 -11.234375 C 0.90625 -11.453125 0.875 -11.769531 0.875 -12.1875 C 1.6875 -12.15625 2.863281 -12.140625 4.40625 -12.140625 C 6.320312 -12.140625 7.984375 -12.15625 9.390625 -12.1875 C 9.503906 -10.832031 9.628906 -9.851562 9.765625 -9.25 C 9.503906 -9.09375 9.144531 -9.015625 8.6875 -9.015625 C 8.613281 -9.691406 8.375 -10.226562 7.96875 -10.625 C 7.5625 -11.03125 6.863281 -11.234375 5.875 -11.234375 L 4.421875 -11.234375 L 4.421875 -6.546875 L 5.25 -6.546875 C 5.9375 -6.546875 6.410156 -6.644531 6.671875 -6.84375 C 6.941406 -7.039062 7.082031 -7.414062 7.09375 -7.96875 C 7.375 -8.0625 7.726562 -8.109375 8.15625 -8.109375 C 8.113281 -7.523438 8.09375 -6.863281 8.09375 -6.125 C 8.09375 -5.320312 8.113281 -4.617188 8.15625 -4.015625 C 7.707031 -4.015625 7.363281 -4.050781 7.125 -4.125 C 7.082031 -4.71875 6.925781 -5.113281 6.65625 -5.3125 C 6.394531 -5.519531 5.925781 -5.625 5.25 -5.625 L 4.421875 -5.625 L 4.421875 -2.75 C 4.421875 -2.257812 4.460938 -1.882812 4.546875 -1.625 C 4.640625 -1.375 4.796875 -1.195312 5.015625 -1.09375 C 5.234375 -1 5.5625 -0.953125 6 -0.953125 L 6.15625 -0.953125 C 6.863281 -0.953125 7.414062 -1.035156 7.8125 -1.203125 C 8.21875 -1.367188 8.523438 -1.609375 8.734375 -1.921875 C 8.941406 -2.234375 9.140625 -2.679688 9.328125 -3.265625 Z M 9.328125 -3.265625 "/></g></g></g><g fill="#000000" fill-opacity="1"><g transform="translate(182.088003, 239.671761)"><g><path d="M 6.65625 0.15625 C 5.445312 0.15625 4.390625 -0.101562 3.484375 -0.625 C 2.578125 -1.144531 1.875 -1.878906 1.375 -2.828125 C 0.875 -3.785156 0.625 -4.914062 0.625 -6.21875 C 0.625 -7.488281 0.90625 -8.582031 1.46875 -9.5 C 2.039062 -10.414062 2.800781 -11.109375 3.75 -11.578125 C 4.707031 -12.054688 5.757812 -12.296875 6.90625 -12.296875 C 7.707031 -12.296875 8.484375 -12.21875 9.234375 -12.0625 C 9.984375 -11.90625 10.640625 -11.695312 11.203125 -11.4375 C 11.066406 -10.75 11 -9.820312 11 -8.65625 C 10.71875 -8.519531 10.328125 -8.453125 9.828125 -8.453125 C 9.773438 -9.554688 9.507812 -10.316406 9.03125 -10.734375 C 8.550781 -11.160156 7.867188 -11.375 6.984375 -11.375 C 6.109375 -11.375 5.367188 -11.15625 4.765625 -10.71875 C 4.171875 -10.289062 3.726562 -9.710938 3.4375 -8.984375 C 3.15625 -8.265625 3.015625 -7.472656 3.015625 -6.609375 C 3.015625 -5.515625 3.164062 -4.535156 3.46875 -3.671875 C 3.78125 -2.804688 4.234375 -2.125 4.828125 -1.625 C 5.429688 -1.125 6.148438 -0.875 6.984375 -0.875 C 7.304688 -0.875 7.582031 -0.890625 7.8125 -0.921875 C 8.039062 -0.953125 8.257812 -1.007812 8.46875 -1.09375 C 8.6875 -1.175781 8.835938 -1.3125 8.921875 -1.5 C 9.015625 -1.6875 9.0625 -1.992188 9.0625 -2.421875 L 9.0625 -3.25 C 9.0625 -3.757812 9.023438 -4.125 8.953125 -4.34375 C 8.878906 -4.5625 8.75 -4.707031 8.5625 -4.78125 C 8.375 -4.863281 8.050781 -4.910156 7.59375 -4.921875 C 7.519531 -5.160156 7.484375 -5.488281 7.484375 -5.90625 C 7.828125 -5.875 8.585938 -5.859375 9.765625 -5.859375 C 10.929688 -5.859375 11.675781 -5.867188 12 -5.890625 C 12 -5.472656 11.960938 -5.148438 11.890625 -4.921875 C 11.648438 -4.910156 11.472656 -4.867188 11.359375 -4.796875 C 11.253906 -4.722656 11.179688 -4.582031 11.140625 -4.375 C 11.109375 -4.164062 11.09375 -3.816406 11.09375 -3.328125 L 11.09375 -2.625 C 11.09375 -2.289062 11.109375 -2.015625 11.140625 -1.796875 C 11.171875 -1.585938 11.238281 -1.390625 11.34375 -1.203125 C 10.78125 -0.796875 10.09375 -0.46875 9.28125 -0.21875 C 8.476562 0.03125 7.601562 0.15625 6.65625 0.15625 Z M 6.65625 0.15625 "/></g></g></g><g fill="#000000" fill-opacity="1"><g transform="translate(195.048632, 239.671761)"><g><path d="M 12.203125 -0.890625 C 12.285156 -0.609375 12.328125 -0.296875 12.328125 0.046875 C 11.867188 0.015625 11.117188 0 10.078125 0 C 8.960938 0 8.175781 0.015625 7.71875 0.046875 C 7.71875 -0.359375 7.765625 -0.671875 7.859375 -0.890625 C 8.160156 -0.929688 8.378906 -0.992188 8.515625 -1.078125 C 8.648438 -1.160156 8.71875 -1.285156 8.71875 -1.453125 C 8.71875 -1.628906 8.632812 -1.90625 8.46875 -2.28125 L 7.875 -3.6875 C 6.019531 -3.6875 4.503906 -3.65625 3.328125 -3.59375 L 2.96875 -2.65625 C 2.8125 -2.257812 2.734375 -1.929688 2.734375 -1.671875 C 2.734375 -1.429688 2.800781 -1.25 2.9375 -1.125 C 3.082031 -1 3.304688 -0.921875 3.609375 -0.890625 C 3.703125 -0.609375 3.75 -0.296875 3.75 0.046875 C 3.34375 0.015625 2.734375 0 1.921875 0 C 1.578125 0 1.0625 0.015625 0.375 0.046875 C 0.375 -0.316406 0.421875 -0.625 0.515625 -0.875 C 0.828125 -0.9375 1.070312 -1.085938 1.25 -1.328125 C 1.425781 -1.578125 1.660156 -2.0625 1.953125 -2.78125 L 5.6875 -12.15625 C 5.9375 -12.21875 6.234375 -12.25 6.578125 -12.25 L 10.765625 -2.734375 C 10.992188 -2.222656 11.179688 -1.84375 11.328125 -1.59375 C 11.472656 -1.351562 11.609375 -1.179688 11.734375 -1.078125 C 11.859375 -0.984375 12.015625 -0.921875 12.203125 -0.890625 Z M 7.484375 -4.59375 L 6.3125 -7.328125 C 5.988281 -8.046875 5.71875 -8.757812 5.5 -9.46875 C 5.28125 -8.769531 5.03125 -8.054688 4.75 -7.328125 L 3.71875 -4.59375 Z M 7.484375 -4.59375 "/></g></g></g><g fill="#000000" fill-opacity="1"><g transform="translate(207.75795, 239.671761)"><g><path d="M 2.203125 -9.5625 C 2.203125 -10.007812 2.164062 -10.347656 2.09375 -10.578125 C 2.03125 -10.804688 1.910156 -10.96875 1.734375 -11.0625 C 1.566406 -11.15625 1.316406 -11.210938 0.984375 -11.234375 C 0.910156 -11.484375 0.875 -11.800781 0.875 -12.1875 C 1.519531 -12.15625 2.34375 -12.140625 3.34375 -12.140625 C 4.226562 -12.140625 5.03125 -12.15625 5.75 -12.1875 C 5.75 -12.007812 5.738281 -11.835938 5.71875 -11.671875 C 5.707031 -11.503906 5.679688 -11.359375 5.640625 -11.234375 C 5.304688 -11.210938 5.050781 -11.15625 4.875 -11.0625 C 4.707031 -10.96875 4.585938 -10.804688 4.515625 -10.578125 C 4.453125 -10.347656 4.421875 -10.007812 4.421875 -9.5625 L 4.421875 -2.578125 C 4.421875 -2.128906 4.453125 -1.789062 4.515625 -1.5625 C 4.585938 -1.332031 4.707031 -1.171875 4.875 -1.078125 C 5.050781 -0.984375 5.304688 -0.921875 5.640625 -0.890625 C 5.710938 -0.703125 5.75 -0.390625 5.75 0.046875 C 5.082031 0.015625 4.296875 0 3.390625 0 C 2.390625 0 1.550781 0.015625 0.875 0.046875 C 0.875 -0.359375 0.910156 -0.671875 0.984375 -0.890625 C 1.316406 -0.921875 1.566406 -0.984375 1.734375 -1.078125 C 1.910156 -1.171875 2.03125 -1.332031 2.09375 -1.5625 C 2.164062 -1.789062 2.203125 -2.128906 2.203125 -2.578125 Z M 2.203125 -9.5625 "/></g></g></g><path stroke-linecap="butt" transform="matrix(0.75, 0, 0, 0.75, 78.989486, 250.213138)" fill="none" stroke-linejoin="miter" d="M -0.00160595 1.002274 L 48.441106 1.002274 " stroke="#000000" stroke-width="2" stroke-opacity="1" stroke-miterlimit="4"/><path stroke-linecap="butt" transform="matrix(0.75, 0, 0, 0.75, 115.320511, 250.213138)" fill="none" stroke-linejoin="miter" d="M -0.000264036 1.002274 L 240.921627 1.002274 " stroke="#000000" stroke-width="2" stroke-opacity="1" stroke-miterlimit="4"/></svg>